HIERARCHY
ROOT Hips
{
	OFFSET 0.000000 0.000000 0.000000
	CHANNELS 6 Xposition Yposition Zposition Xrotation Yrotation Zrotation
	JOINT LeftUpLeg_virtual
	{
		OFFSET 0.000000 0.000000 0.000000
		CHANNELS 3 Xrotation Yrotation Zrotation
		JOINT LeftUpLeg
		{
			OFFSET 15.427100 -6.655098 0.678600
			CHANNELS 3 Xrotation Yrotation Zrotation
			JOINT LeftLeg
			{
				OFFSET 4.081073 -39.591068 13.024000
				CHANNELS 3 Xrotation Yrotation Zrotation
				JOINT LeftFoot
				{
					OFFSET -4.081074 -37.707932 -15.979700
					CHANNELS 3 Xrotation Yrotation Zrotation
					JOINT LeftToeBase
					{
						OFFSET 5.346399 -15.068900 20.645000
						CHANNELS 3 Xrotation Yrotation Zrotation
						JOINT LeftToe_End
						{
							OFFSET 2.754700 0.931300 11.300900
							CHANNELS 3 Xrotation Yrotation Zrotation
							End Site
							{
								OFFSET 0 0 0
							}
						}
					}
				}
			}
		}
	}
	JOINT RightUpLeg_virtual
	{
		OFFSET 0.000000 0.000000 0.000000
		CHANNELS 3 Xrotation Yrotation Zrotation
		JOINT RightUpLeg
		{
			OFFSET -15.569500 -6.655098 0.678600
			CHANNELS 3 Xrotation Yrotation Zrotation
			JOINT RightLeg
			{
				OFFSET -4.081825 -39.591045 13.023800
				CHANNELS 3 Xrotation Yrotation Zrotation
				JOINT RightFoot
				{
					OFFSET 4.081824 -37.707954 -15.979600
					CHANNELS 3 Xrotation Yrotation Zrotation
					JOINT RightToeBase
					{
						OFFSET -5.346400 -15.068900 20.645000
						CHANNELS 3 Xrotation Yrotation Zrotation
						JOINT RightToe_End
						{
							OFFSET -2.754700 0.931300 11.300900
							CHANNELS 3 Xrotation Yrotation Zrotation
							End Site
							{
								OFFSET 0 0 0
							}
						}
					}
				}
			}
		}
	}
	JOINT Spine_virtual
	{
		OFFSET 0.000000 0.000000 0.000000
		CHANNELS 3 Xrotation Yrotation Zrotation
		JOINT Spine
		{
			OFFSET -0.279200 12.230698 -2.892100
			CHANNELS 3 Xrotation Yrotation Zrotation
			JOINT Spine1
			{
				OFFSET -0.232667 10.192268 -1.242267
				CHANNELS 3 Xrotation Yrotation Zrotation
				JOINT Spine1_split
				{
					OFFSET -0.232667 10.192268 -1.242267
					CHANNELS 3 Xrotation Yrotation Zrotation
					JOINT Spine2
					{
						OFFSET -0.232667 10.192268 -1.242267
						CHANNELS 3 Xrotation Yrotation Zrotation
						JOINT Neck_virtual
						{
							OFFSET 0.000000 0.000000 0.000000
							CHANNELS 3 Xrotation Yrotation Zrotation
							JOINT Neck
							{
								OFFSET -0.418800 17.814194 8.416900
								CHANNELS 3 Xrotation Yrotation Zrotation
								JOINT Head
								{
									OFFSET 0.000000 7.031097 3.806800
									CHANNELS 3 Xrotation Yrotation Zrotation
									JOINT HeadTop_End
									{
										OFFSET 0.000000 24.646606 12.978600
										CHANNELS 3 Xrotation Yrotation Zrotation
										End Site
										{
											OFFSET 0 0 0
										}
									}
								}
							}
						}
						JOINT LeftShoulder_virtual
						{
							OFFSET 0.000000 0.000000 0.000000
							CHANNELS 3 Xrotation Yrotation Zrotation
							JOINT LeftShoulder
							{
								OFFSET 8.476499 7.247704 -3.868750
								CHANNELS 3 Xrotation Yrotation Zrotation
								JOINT LeftShoulder_split
								{
									OFFSET 8.476499 7.247704 -3.868750
									CHANNELS 3 Xrotation Yrotation Zrotation
									JOINT LeftArm
									{
										OFFSET 9.308998 -2.777710 0.208600
										CHANNELS 3 Xrotation Yrotation Zrotation
										JOINT LeftForeArm
										{
											OFFSET 29.972298 0.000000 0.000000
											CHANNELS 3 Xrotation Yrotation Zrotation
											JOINT LeftHand
											{
												OFFSET 26.026505 0.000000 0.000000
												CHANNELS 3 Xrotation Yrotation Zrotation
												End Site
												{
													OFFSET 0 0 0
												}
											}
										}
									}
								}
							}
						}
						JOINT RightShoulder_virtual
						{
							OFFSET 0.000000 0.000000 0.000000
							CHANNELS 3 Xrotation Yrotation Zrotation
							JOINT RightShoulder
							{
								OFFSET -7.570500 7.247704 -3.868750
								CHANNELS 3 Xrotation Yrotation Zrotation
								JOINT RightShoulder_split
								{
									OFFSET -7.570500 7.247704 -3.868750
									CHANNELS 3 Xrotation Yrotation Zrotation
									JOINT RightArm
									{
										OFFSET -9.308998 -2.777710 0.208500
										CHANNELS 3 Xrotation Yrotation Zrotation
										JOINT RightForeArm
										{
											OFFSET -29.972300 0.000000 0.000000
											CHANNELS 3 Xrotation Yrotation Zrotation
											JOINT RightHand
											{
												OFFSET -26.026505 0.000000 0.000000
												CHANNELS 3 Xrotation Yrotation Zrotation
												End Site
												{
													OFFSET 0 0 0
												}
											}
										}
									}
								}
							}
						}
					}
				}
			}
		}
	}
}
MOTION
Frames: 4
Frame Time: 0.03333333
5.517387 82.489571 125.612160 0.000000 0.000000 0.000000 3.619397 -2.446375 -3.898308 -54.199201 -0.012308 10.195952 33.154954 -0.167378 1.290489 7.705403 -12.724396 -1.595923 1.287745 -3.277143 -0.973826 0.000000 0.000000 0.000000 3.957958 1.193277 -3.485925 -16.606895 2.275654 7.060503 42.204842 1.493748 -1.229761 -26.586450 -2.514795 -0.437819 2.105098 0.962462 0.433847 0.000000 0.000000 0.000000 1.875063 1.275683 -2.858367 17.339740 2.972580 0.495450 18.887145 6.807536 3.725548 0.967281 -4.211758 1.853796 0.000000 0.000000 0.000000 17.756477 7.783331 2.825841 -46.591237 20.734248 -27.722117 40.150710 -39.599091 40.891803 0.000000 0.000000 0.000000 19.331373 7.192223 3.403572 -2.028603 -12.859887 -7.738823 -3.862568 3.471879 -6.073493 -11.344781 -1.568721 -57.781092 -1.294725 -69.362934 -3.311522 0.000000 0.000000 0.000000 17.971484 7.941310 3.412574 0.206755 19.871848 7.086008 -3.182426 5.061813 8.873952 -55.885154 6.017480 31.510832 -170.592799 81.428197 170.079756 0.000000 0.000000 0.000000 
5.327211 83.173538 123.822426 0.000000 0.000000 0.000000 1.364315 -2.614313 -4.502664 -51.565456 -0.475572 12.056498 34.340149 2.097412 1.410420 2.500707 -10.213061 -2.766134 -1.247333 -3.529286 0.261120 0.000000 0.000000 0.000000 1.936888 0.537624 -4.026095 -17.142969 1.760197 7.404053 41.491415 1.997779 -0.949060 -23.831020 -2.167187 -0.729657 1.971489 0.958423 0.220281 0.000000 0.000000 0.000000 -0.254456 1.382509 -3.665872 17.392911 2.795332 0.826399 18.068572 6.534309 3.715019 0.823788 -4.241185 1.708079 0.000000 0.000000 0.000000 16.938604 7.608783 2.772118 -47.145449 19.558481 -26.920436 40.755100 -38.069828 40.452448 0.000000 0.000000 0.000000 18.490939 6.958583 3.384856 -1.591908 -11.830580 -7.227500 -3.679947 3.569773 -5.977044 -13.868090 -1.509702 -59.587643 -0.150505 -63.755861 -2.416554 0.000000 0.000000 0.000000 17.135027 7.698473 3.435079 0.092830 17.512892 8.808200 -2.457355 4.880095 8.490130 -59.113266 7.489078 30.698944 -170.160120 81.954846 169.779460 0.000000 0.000000 0.000000 
5.020209 83.773300 122.053070 0.000000 0.000000 0.000000 -0.736328 -2.859319 -4.852855 -49.187939 -0.663965 13.655821 37.225521 3.370108 1.490146 -1.427434 -8.507393 -4.887527 -3.770629 -3.849602 1.964167 0.000000 0.000000 0.000000 0.207858 0.043042 -4.356445 -17.576213 1.758327 7.709083 41.134080 2.485200 -0.844157 -21.610030 -2.099652 -1.119066 1.706802 0.904671 0.090814 0.000000 0.000000 0.000000 -2.247506 1.631606 -4.301541 17.401592 2.635606 1.157579 17.297818 6.134449 3.629575 0.707413 -4.512901 1.509832 0.000000 0.000000 0.000000 16.190690 7.267369 2.687505 -47.642759 18.176943 -25.865170 40.809072 -36.727905 39.278417 0.000000 0.000000 0.000000 17.745888 6.591962 3.292320 -1.134875 -10.860158 -6.830063 -3.566772 3.739615 -5.819961 -16.340857 -1.102747 -61.004019 0.788338 -58.349459 -1.733086 0.000000 0.000000 0.000000 16.455097 7.313570 3.357924 0.090173 15.165696 10.440272 -1.814181 4.850326 8.303325 -63.661932 8.336813 30.101467 -170.402291 82.153795 170.126775 0.000000 0.000000 0.000000 
4.659468 84.301491 120.112801 0.000000 0.000000 0.000000 -2.442589 -3.040817 -4.987356 -46.493286 -0.416736 14.645507 41.555878 4.166188 1.497797 -4.816234 -7.119991 -7.005201 -4.907633 -4.097164 3.337472 0.000000 0.000000 0.000000 -1.190567 -0.309952 -4.554407 -17.999335 2.029039 8.038708 41.083195 2.962132 -0.821619 -19.833797 -2.266586 -1.499872 1.378025 0.807657 0.134898 0.000000 0.000000 0.000000 -3.915678 1.991159 -4.770676 17.283961 2.484528 1.511505 16.537703 5.595599 3.483482 0.529334 -4.760484 1.375708 0.000000 0.000000 0.000000 15.475959 6.753659 2.570574 -47.938980 16.579647 -24.611352 40.355613 -35.598120 37.503855 0.000000 0.000000 0.000000 17.048516 6.083010 3.147399 -0.674298 -9.959266 -6.533823 -3.471284 3.908720 -5.645726 -18.253103 -0.388535 -61.994226 1.542441 -53.834690 -1.231533 0.000000 0.000000 0.000000 15.868710 6.772037 3.195100 0.212563 12.873608 11.742128 -1.186256 4.938637 8.212277 -69.259061 8.335503 29.737783 -171.851070 81.436400 171.640605 0.000000 0.000000 0.000000 
